# xmcd
#
# Track frame offsets:
#	150
#	16246
#	32256
#	45760
#	53458
#	73650
#	88339
#	104199
#	124117
#	148449
#	170140
#	185327
#	199304
#	208989
#	224639
#	240616
#	253269
#
# Disc length: 3664 seconds
#
# Revision: 1
# Processed by: cddbd v1.5.2PL0 Copyright (c) Steve Scherf et al.
# Submitted via: EasyCDDAExtractor 10.0.4.1
#
DISCID=0a0e4e11
DTITLE=Martin Taylor Steve Howe - Masterpiece Guitars Martin Taylor Steve Howe
DYEAR=2001
DGENRE=Blues
TTITLE0=Two Teardrops
TTITLE1=No Pedestrians
TTITLE2=Smile
TTITLE3=La Questa
TTITLE4=All the Things You Are
TTITLE5=Thought Waves
TTITLE6=Thank Heaven for Little Girls
TTITLE7=Ginger
TTITLE8=Blue Bossa
TTITLE9=Tailpiece
TTITLE10=Cherokee Ridge
TTITLE11=The Sunshine of Your Smile
TTITLE12=Goofus
TTITLE13=Moon River
TTITLE14=Ae Fond Kiss - Farewell to Erin
TTITLE15=Somewhere
TTITLE16=Harpnosis
EXTD=
EXTT0=
EXTT1=
EXTT2=
EXTT3=
EXTT4=
EXTT5=
EXTT6=
EXTT7=
EXTT8=
EXTT9=
EXTT10=
EXTT11=
EXTT12=
EXTT13=
EXTT14=
EXTT15=
EXTT16=
PLAYORDER=
